<svg width="100" height="100" viewBox="0 0 100 100" fill="none" xmlns="http://www.w3.org/2000/svg">
<circle cx="50" cy="50" r="50" fill="#5B87C6"/>
<path d="M39.4183 56.438C38.9322 56.942 38.5062 57.3921 37.9901 57.9262C38.4642 58.3702 38.9922 58.8383 39.4903 59.3304C40.0244 59.8585 40.0184 60.2125 39.7063 60.8966C39.2263 61.9528 38.7822 63.0269 38.3802 64.1131C38.1641 64.7012 37.8401 65.0192 37.198 65.0132C36.1959 65.0012 35.1997 65.0132 34.1976 65.0132C33.4535 65.0132 33.0094 64.6351 33.0034 64.0291C32.9974 63.417 33.4415 63.0269 34.1736 63.0209C34.9657 63.0149 35.7518 63.0209 36.5259 63.0209C36.874 62.2108 37.228 61.4367 37.534 60.6446C37.5881 60.5005 37.534 60.2425 37.42 60.1225C36.988 59.6424 36.5139 59.2044 36.0578 58.7423C35.4037 58.0822 35.3977 57.5781 36.0458 56.924C36.8079 56.1559 37.576 55.3998 38.3562 54.6197C37.342 52.8675 36.3579 51.1572 35.2897 49.3089C34.3296 50.3591 33.4295 51.3432 32.5293 52.3394C32.3493 52.5374 32.2053 52.7774 32.0193 52.9695C31.5272 53.4856 30.7951 53.4615 30.423 52.8495C29.5529 51.4033 28.7188 49.939 27.8967 48.4688C27.6266 47.9888 27.8247 47.4367 28.2747 47.1666C28.7488 46.8846 29.3069 47.0046 29.6249 47.5207C30.129 48.3368 30.5911 49.1709 31.0771 49.999C31.1671 50.1611 31.2692 50.3111 31.4012 50.5211C35.0677 46.2545 39.6403 43.6081 45.2391 42.54C42.6468 38.0453 40.0844 33.6047 37.492 29.1101C32.8714 31.7744 28.2867 34.4268 23.6361 37.1092C23.9721 37.6913 24.2902 38.2374 24.6322 38.8375C25.4363 38.3754 26.1864 37.9433 26.9366 37.5113C29.967 35.765 32.9914 34.0128 36.0218 32.2665C36.1118 32.2125 36.2019 32.1585 36.2979 32.1165C36.8499 31.8525 37.39 31.9785 37.6721 32.4345C37.9721 32.9206 37.8341 33.4967 37.3 33.8387C36.8439 34.1268 36.3639 34.3848 35.8958 34.6549C32.6554 36.5271 29.4089 38.3994 26.1684 40.2777C26.0064 40.3677 25.8504 40.4757 25.6524 40.5957C26.2705 41.6759 26.8825 42.732 27.4946 43.8002C27.9147 44.5383 27.8307 45.1084 27.2606 45.4264C26.6965 45.7384 26.1804 45.5164 25.7484 44.7723C25.7184 44.7183 25.6824 44.6643 25.6524 44.6103C24.0501 41.8319 22.4479 39.0595 20.8457 36.2811C20.6897 36.011 20.5276 35.747 20.3836 35.471C19.6035 33.9888 20.0356 32.2845 21.4758 31.4444C25.5204 29.0861 29.5709 26.7397 33.6395 24.4234C35.1457 23.5653 36.8679 24.0453 37.7441 25.5576C41.0445 31.2464 44.327 36.9412 47.6095 42.642C48.1495 43.5781 47.7715 44.1902 46.6793 44.3943C45.3351 44.6463 44.003 44.9703 42.6648 45.2704C42.5507 45.2944 42.4427 45.3664 42.2927 45.4384C43.4989 47.5267 44.693 49.591 45.9712 51.8053C45.9832 51.4693 45.9952 51.3132 46.0012 51.1572C46.0312 50.3831 46.3853 50.0291 47.1774 50.0231C48.9897 50.0171 50.8019 50.0231 52.6142 50.0231C53.6823 50.0231 53.9704 50.3111 54.0004 51.3852C54.0004 51.4633 54.0124 51.5413 54.0364 51.7873C55.3025 49.597 56.4967 47.5387 57.7689 45.3364C56.5807 45.0543 55.4646 44.7723 54.3424 44.5203C53.9584 44.4363 53.5563 44.4183 53.1662 44.3522C52.2301 44.1902 51.8941 43.5301 52.3561 42.714C53.3403 40.9738 54.3424 39.2455 55.3506 37.5233C55.7046 36.9232 56.2567 36.7552 56.7668 37.0432C57.2768 37.3372 57.4148 37.9133 57.0728 38.5134C56.4307 39.6536 55.7646 40.7877 55.1105 41.9219C55.0085 42.1019 54.9125 42.2819 54.7685 42.54C60.3012 43.5961 64.8859 46.2245 68.6064 50.5451C70.5327 47.2087 72.441 43.9082 74.3612 40.5777C69.7346 37.9073 65.1619 35.2669 60.5113 32.5846C60.0852 33.3107 59.7072 34.0488 59.2391 34.7269C59.0351 35.0209 58.687 35.327 58.357 35.399C57.6309 35.549 57.0968 34.8109 57.3488 34.1088C57.4148 33.9348 57.5109 33.7727 57.6009 33.6107C59.1071 30.9943 60.6133 28.384 62.1255 25.7676C63.1697 23.9673 64.8199 23.5233 66.6381 24.5734C70.4967 26.7937 74.3552 29.0201 78.2078 31.2524C80.056 32.3265 80.4941 33.9588 79.4319 35.801C76.2275 41.3518 73.023 46.9026 69.8186 52.4534C69.1465 53.6176 68.4744 53.6476 67.6403 52.5614C65.522 49.789 62.5456 47.4067 59.6112 46.1585C59.4911 46.3565 59.3591 46.5606 59.2391 46.7706C57.4929 49.801 55.6506 52.7774 54.0244 55.8679C52.6862 58.4063 50.7359 59.7985 47.8855 60.0145C46.2773 60.1345 45.1371 60.9986 44.387 62.5348C44.9271 62.8469 45.4672 63.1889 46.0372 63.459C46.1513 63.513 46.4273 63.315 46.5773 63.1829C49.4637 60.6326 53.9524 62.0488 54.7865 65.8113C54.9425 66.5194 54.8465 67.2995 54.7745 68.0376C54.7445 68.3857 54.7805 68.5717 55.0925 68.7337C55.5546 68.9678 55.9926 69.2438 56.4727 69.5138C57.2648 68.3917 57.5529 67.2035 57.1568 65.9013C56.9828 65.3252 56.7427 64.7672 56.5267 64.2091C55.8006 62.3188 55.9326 60.5066 56.9468 58.7483C58.423 56.2099 59.8812 53.6656 61.3514 51.1272C61.4114 51.0192 61.4714 50.9052 61.5434 50.8032C61.8975 50.3111 62.4315 50.1791 62.9056 50.4671C63.3557 50.7372 63.5057 51.2532 63.2657 51.7753C63.1817 51.9613 63.0676 52.1414 62.9656 52.3214C61.5734 54.7337 60.1932 57.1641 58.771 59.5644C57.9789 60.9026 57.8529 62.2468 58.465 63.681C59.0411 65.0312 59.5811 66.4054 59.2331 67.9056C59.0651 68.6437 58.831 69.3998 58.471 70.0659C57.3068 72.1842 56.0767 74.2605 54.8645 76.3488C54.3904 77.1589 53.9163 77.285 53.1122 76.8229C52.9502 76.7329 52.7822 76.6489 52.6262 76.5408C51.8761 76.0188 51.096 75.6467 50.1358 75.8928C49.9018 75.9528 49.6317 75.9228 49.3917 75.8748C48.8576 75.7667 48.5516 75.4187 48.5396 74.8726C48.5276 74.3625 48.9537 73.9485 49.4997 73.9065C50.0998 73.8585 50.6999 73.7925 51.306 73.7864C51.582 73.7864 51.8821 73.8465 52.1341 73.9665C52.5842 74.1765 52.9982 74.4525 53.4963 74.7346C54.1684 73.5764 54.8165 72.4543 55.4946 71.2781C54.9365 70.954 54.4384 70.618 53.8923 70.372C53.7543 70.306 53.4483 70.468 53.2923 70.606C50.7659 72.8443 46.8594 72.0822 45.4252 69.0638C44.9211 68.0136 44.8071 66.9035 45.0831 65.7753C45.1671 65.4273 45.1011 65.2352 44.7831 65.0792C44.321 64.8452 43.8769 64.5751 43.3669 64.2811C42.7068 65.4273 42.0527 66.5554 41.4046 67.6776C41.4406 67.7316 41.4586 67.7796 41.4886 67.7916C42.6168 68.2957 43.3789 69.0878 43.8409 70.2759C44.237 71.2901 45.0711 72.0402 45.9772 72.6703C46.7213 73.1864 46.9014 73.7264 46.5173 74.2725C46.1573 74.7886 45.5632 74.8126 44.8671 74.3385C43.5109 73.4144 42.5087 72.1902 41.7706 70.732C41.5966 70.39 41.2906 70.0779 40.9785 69.8439C40.5645 69.5318 40.0784 69.3218 39.6343 69.0518C38.9502 68.6377 38.8242 68.1757 39.2143 67.4796C39.9224 66.2314 40.6245 64.9772 41.3686 63.747C42.1127 62.5228 42.0767 61.2747 41.4526 60.0565C40.8405 58.8563 40.1204 57.7042 39.4123 56.462L39.4183 56.438ZM43.7329 59.9365C44.687 58.8863 45.9292 58.2742 47.2854 58.0462C44.9751 54.0616 42.6828 50.1011 40.3484 46.0745C39.1603 46.7706 38.0381 47.4247 36.91 48.0848C39.2263 52.1114 41.4766 56.0179 43.7329 59.9365ZM61.5074 30.8383C66.1461 33.5147 70.7307 36.1611 75.3634 38.8375C75.7114 38.2314 76.0295 37.6853 76.3595 37.1032C71.7089 34.4148 67.1242 31.7684 62.5096 29.1041C62.1675 29.6921 61.8555 30.2322 61.5074 30.8383ZM22.6459 35.363C27.2906 32.6806 31.8812 30.0282 36.4839 27.3758C36.3939 27.2078 36.3459 27.1118 36.2919 27.0218C35.6198 25.8336 35.2957 25.7436 34.1256 26.4277C32.6494 27.2798 31.1731 28.1319 29.6969 28.984C27.3746 30.3222 25.0523 31.6604 22.73 33.0046C21.9799 33.4367 21.8298 33.9047 22.1959 34.5948C22.3279 34.8469 22.4839 35.0869 22.6519 35.363H22.6459ZM63.5237 27.3698C68.1504 30.0402 72.735 32.6926 77.3076 35.333C78.3218 34.0728 78.2078 33.5027 76.8996 32.7646C73.1911 30.6703 69.5125 28.516 65.822 26.3857C64.7119 25.7496 64.3758 25.8456 63.7397 26.9678C63.6797 27.0758 63.6197 27.1838 63.5237 27.3698ZM49.9138 63.879C48.2696 63.879 46.9554 65.2112 46.9494 66.8675C46.9434 68.5417 48.2876 69.8919 49.9558 69.8799C51.594 69.8679 52.9142 68.5417 52.9202 66.8915C52.9262 65.2232 51.582 63.873 49.9138 63.879ZM47.9995 52.0333C47.9995 52.8315 48.0055 53.5576 47.9995 54.2837C47.9995 54.5837 47.8255 54.9738 47.9575 55.1658C48.4436 55.8739 49.0137 56.522 49.5837 57.1761C49.8238 57.4521 50.1298 57.4281 50.4119 57.1881C51.342 56.396 52.2961 55.6519 52.0321 54.1756C51.9061 53.4795 52.0081 52.7414 52.0081 52.0273H48.0055L47.9995 52.0333Z" fill="white"/>
<path d="M65.0059 69.0096C65.0059 67.7854 65.0059 66.6453 65.0059 65.4991V65.007C64.2738 65.007 63.5957 65.007 62.9116 65.007C62.1015 65.007 61.8794 64.779 61.6094 64.0349C61.2253 62.9848 60.7993 61.9466 60.3252 60.9325C59.9712 60.1764 59.9712 59.8703 60.5653 59.2702C61.2433 58.5921 61.9154 57.908 62.5995 57.2419C63.1216 56.7259 63.7217 56.6839 64.1418 57.1099C64.5618 57.53 64.5138 58.1361 64.0097 58.6581C63.5477 59.1382 63.0556 59.5883 62.6115 60.0863C62.4975 60.2184 62.4255 60.5004 62.4855 60.6564C62.7796 61.4305 63.1276 62.1866 63.4757 63.0088C64.2138 63.0088 65.0059 63.0088 65.792 63.0088C66.6441 63.0148 66.9982 63.3688 67.0042 64.2329C67.0042 66.0872 67.0102 67.9415 67.0042 69.7957C67.0042 70.6479 66.6381 71.0019 65.78 71.0079C65.1139 71.0139 64.4478 70.9899 63.7817 71.0259C63.6137 71.0379 63.3796 71.1999 63.3076 71.356C63.0076 71.992 62.7376 72.6521 62.5095 73.3182C62.4495 73.4983 62.4975 73.7983 62.6235 73.9363C63.0616 74.4344 63.5597 74.8845 64.0217 75.3645C64.5798 75.9406 64.5798 76.4687 64.0097 77.0448C62.6895 78.377 61.3634 79.7031 60.0312 81.0233C59.4611 81.5874 58.933 81.5754 58.3509 81.0053C57.8709 80.5433 57.4208 80.0512 56.9227 79.6071C56.7967 79.4931 56.5087 79.4331 56.3527 79.4931C55.5785 79.7872 54.8224 80.1352 54.0063 80.4833C54.0063 81.2094 54.0063 81.9775 54.0063 82.7456C54.0063 83.6517 53.6583 84.0118 52.7762 84.0118C50.9219 84.0118 49.0676 84.0178 47.2134 84.0118C46.3672 84.0118 46.0192 83.6457 46.0072 82.7816C46.0072 82.1155 46.0312 81.4494 45.9892 80.7833C45.9772 80.6153 45.8092 80.3812 45.6531 80.3092C45.0171 80.0092 44.357 79.7392 43.6909 79.5111C43.5108 79.4511 43.2108 79.5111 43.0728 79.6311C42.5867 80.0572 42.1547 80.5373 41.6926 80.9873C41.0805 81.5874 40.5584 81.5994 39.9643 81.0113C38.6502 79.7092 37.336 78.395 36.0338 77.0808C35.4157 76.4567 35.4277 75.9466 36.0578 75.3105C36.5679 74.7884 37.372 74.3444 37.516 73.7383C37.654 73.1562 37.1019 72.4181 36.8499 71.746C36.7659 71.512 36.6819 71.2779 36.5799 71.0139C35.7878 71.0139 34.9956 71.0199 34.2095 71.0139C33.3874 71.0079 33.0214 70.6539 33.0094 69.8437C32.9974 69.1956 32.9974 68.5536 33.0094 67.9055C33.0214 67.2154 33.4054 66.7773 33.9875 66.7713C34.5996 66.7593 34.9896 67.2094 35.0016 67.9355C35.0076 68.2655 35.0016 68.5956 35.0016 69.0156C35.7338 69.0156 36.4298 69.0156 37.1319 69.0156C37.9001 69.0156 38.1341 69.2557 38.3921 69.9578C38.7882 71.0259 39.2262 72.0821 39.7003 73.1142C40.0244 73.8163 40.0304 74.1584 39.4543 74.7284C38.9682 75.2085 38.4581 75.6706 37.9841 76.1206C38.9802 77.1168 39.9043 78.0409 40.8885 79.0251C41.3745 78.521 41.8726 77.9929 42.3767 77.4648C42.7967 77.0328 43.2468 77.0148 43.7929 77.2608C44.885 77.7529 45.9952 78.2149 47.1234 78.641C47.7114 78.863 48.0115 79.2051 47.9995 79.8352C47.9875 80.5373 47.9995 81.2454 47.9995 81.9835H52.002C52.002 81.3234 52.002 80.6453 52.002 79.9672C52.002 79.0851 52.2001 78.905 53.0522 78.599C54.0843 78.2269 55.0985 77.7889 56.0886 77.3268C56.8087 76.9848 57.1328 76.9848 57.7028 77.5488C58.1889 78.0289 58.669 78.527 59.125 78.989C60.0792 78.0289 61.0033 77.1048 62.0115 76.0966C61.5374 75.6526 61.0153 75.1845 60.5112 74.6924C59.9712 74.1584 59.9832 73.8223 60.3012 73.1262C60.7813 72.0701 61.2253 70.9959 61.6214 69.9097C61.8374 69.3217 62.1615 69.0036 62.8036 69.0156C63.5117 69.0276 64.2138 69.0156 65.0059 69.0156V69.0096Z" fill="white"/>
<path d="M35.0795 43.8907C33.4052 43.8907 32.0671 42.5525 32.0791 40.8783C32.0911 39.2401 33.4232 37.9019 35.0555 37.8959C36.7117 37.8899 38.0679 39.2521 38.0559 40.9203C38.0439 42.5705 36.7237 43.8907 35.0795 43.8907ZM35.0375 41.8864C35.5896 41.8984 36.0336 41.4784 36.0516 40.9263C36.0636 40.3802 35.6376 39.9122 35.0975 39.8942C34.5694 39.8761 34.1013 40.3262 34.0833 40.8663C34.0653 41.4184 34.4914 41.8684 35.0375 41.8864Z" fill="white"/>
<path d="M67.9283 40.9259C67.9043 42.6061 66.5661 43.9083 64.8799 43.8843C63.2417 43.8603 61.9335 42.5101 61.9515 40.8658C61.9695 39.1976 63.3497 37.8534 64.9999 37.8954C66.6441 37.9374 67.9463 39.2876 67.9223 40.9259H67.9283ZM65.924 40.9139C65.936 40.3678 65.498 39.9057 64.9579 39.8937C64.4238 39.8817 63.9618 40.3258 63.9558 40.8718C63.9438 41.4239 64.3698 41.874 64.9219 41.88C65.474 41.892 65.918 41.4599 65.93 40.9079L65.924 40.9139Z" fill="white"/>
</svg>
