<svg width="100" height="100" viewBox="0 0 100 100" fill="none" xmlns="http://www.w3.org/2000/svg">
<circle cx="50" cy="50" r="50" fill="#5B87C6"/>
<path d="M45.1879 49.0439H22.856C21.284 49.0439 20 47.7659 20 46.1879V23.856C20 22.284 21.278 21 22.856 21H45.1879C46.7599 21 48.0439 22.278 48.0439 23.856V46.1879C48.0439 47.7599 46.7659 49.0439 45.1879 49.0439ZM22.856 22.956C22.358 22.956 21.956 23.358 21.956 23.856V46.1879C21.956 46.6859 22.358 47.0879 22.856 47.0879H45.1879C45.6859 47.0879 46.0879 46.6859 46.0879 46.1879V23.856C46.0879 23.358 45.6859 22.956 45.1879 22.956H22.856Z" fill="white"/>
<path d="M35.174 28.6143V33.9483H40.286V36.2463H35.174V41.6283H32.78V36.2463H27.668V33.9483H32.78V28.6143H35.174Z" fill="white"/>
<path d="M77.144 49.0439H54.8121C53.2401 49.0439 51.9561 47.7659 51.9561 46.1879V23.856C51.9561 22.284 53.2341 21 54.8121 21H77.144C78.716 21 80 22.278 80 23.856V46.1879C80 47.7599 78.722 49.0439 77.144 49.0439ZM54.8121 22.956C54.3141 22.956 53.9121 23.358 53.9121 23.856V46.1879C53.9121 46.6859 54.3141 47.0879 54.8121 47.0879H77.144C77.642 47.0879 78.044 46.6859 78.044 46.1879V23.856C78.044 23.358 77.642 22.956 77.144 22.956H54.8121Z" fill="white"/>
<path d="M72.8418 33.9657V36.4377H58.7778V33.9657H72.8418Z" fill="white"/>
<path d="M77.144 80.6753H54.8121C53.2401 80.6753 51.9561 79.3973 51.9561 77.8193V55.4874C51.9561 53.9154 53.2341 52.6314 54.8121 52.6314H77.144C78.716 52.6314 80 53.9094 80 55.4874V77.8193C80 79.3913 78.722 80.6753 77.144 80.6753ZM54.8121 54.5874C54.3141 54.5874 53.9121 54.9894 53.9121 55.4874V77.8193C53.9121 78.3173 54.3141 78.7193 54.8121 78.7193H77.144C77.642 78.7193 78.044 78.3173 78.044 77.8193V55.4874C78.044 54.9894 77.642 54.5874 77.144 54.5874H54.8121Z" fill="white"/>
<path d="M59.6239 65.3038V63.0298H72.2418V65.3038H59.6239ZM59.6239 70.3678V68.0938H72.2418V70.3678H59.6239Z" fill="white"/>
<path d="M45.1879 80.6753H22.856C21.284 80.6753 20 79.3973 20 77.8193V55.4874C20 53.9154 21.278 52.6314 22.856 52.6314H45.1879C46.7599 52.6314 48.0439 53.9094 48.0439 55.4874V77.8193C48.0439 79.3913 46.7659 80.6753 45.1879 80.6753ZM22.856 54.5874C22.358 54.5874 21.956 54.9894 21.956 55.4874V77.8193C21.956 78.3173 22.358 78.7193 22.856 78.7193H45.1879C45.6859 78.7193 46.0879 78.3173 46.0879 77.8193V55.4874C46.0879 54.9894 45.6859 54.5874 45.1879 54.5874H22.856Z" fill="white"/>
<path d="M39.254 62.7722L35.504 66.5582L39.134 70.1522L37.514 71.7842L33.884 68.1902L30.098 72.0122L28.394 70.3262L32.18 66.5042L28.55 62.9102L30.17 61.2782L33.8 64.8722L37.55 61.0862L39.254 62.7722Z" fill="white"/>
</svg>
