<svg width="100" height="100" viewBox="0 0 100 100" fill="none" xmlns="http://www.w3.org/2000/svg">
<circle cx="50" cy="50" r="50" fill="#5B87C6"/>
<path d="M57.3472 79.5496C59.1293 77.6007 60.5694 75.1869 61.8835 71.9447C62.1175 71.3666 62.4775 71.1579 63.0956 71.2354C64.0856 71.3665 65.1477 71.4977 66.2037 71.5513C69.9779 71.7301 72.7321 71.2772 75.1322 70.0792C78.4024 68.4462 80.0345 65.7999 79.9805 62.218C79.9445 59.8101 79.2065 57.4559 77.6524 54.8097C77.0283 53.7488 76.3503 52.7416 75.6303 51.6807C75.3122 51.2039 74.9882 50.7271 74.6642 50.2443L74.5202 50.0298L75.2282 49.1119C76.7583 47.1094 77.8984 45.232 78.7024 43.3784C79.8425 40.7739 80.2145 38.5687 79.8845 36.4588C79.3805 33.2226 77.4004 30.9459 74.0042 29.6943C71.028 28.5976 67.7338 28.3771 63.3296 28.985C62.5015 29.0983 62.0815 28.8658 61.7815 28.1268C60.2694 24.4137 58.5533 21.7496 56.3752 19.747C53.933 17.5001 51.3829 16.6478 48.5868 17.1306C46.5406 17.4822 44.7405 18.5312 42.9284 20.4205C41.0383 22.3933 39.5142 24.8965 38.1282 28.3056C37.8881 28.8897 37.5401 29.0983 36.9221 29.0208C35.764 28.8718 34.636 28.7407 33.4839 28.687C30.5137 28.5619 27.9876 28.9195 25.7435 29.7777C21.8553 31.2677 19.7791 34.4861 20.0432 38.5985C20.1752 40.607 20.7752 42.5798 21.8312 44.4631C22.5633 45.7684 23.3553 47.008 24.1954 48.3252C24.5614 48.9033 24.9334 49.4814 25.2994 50.0715L25.4314 50.286L25.2215 50.5662C25.1494 50.6615 25.0474 50.7986 24.9394 50.9357C23.0733 53.3674 21.0572 56.3533 20.2772 60.0306C19.6171 63.1358 20.1332 65.6628 21.8553 67.7548C23.2293 69.4296 25.1014 70.4904 27.7596 71.1043C30.3997 71.7122 33.3099 71.7718 36.6521 71.2831C37.4981 71.1579 37.9301 71.4023 38.2422 72.189C38.6082 73.1069 39.1062 74.2989 39.7603 75.3776C40.7863 77.0643 41.6384 78.298 42.5144 79.3649C44.2305 81.4568 46.4026 82.768 48.9828 83.2687H50.9209C50.9689 83.2389 51.0289 83.2091 51.1009 83.1971C53.405 82.8455 55.3851 81.6893 57.3352 79.5556L57.3472 79.5496ZM76.7463 61.9021C76.9503 64.453 75.8343 66.2886 73.4281 67.3495C71.514 68.1958 69.5339 68.3985 67.7338 68.3985C67.2838 68.3985 66.8518 68.3866 66.4257 68.3687C65.8137 68.3448 65.2017 68.2793 64.6076 68.2256C64.3316 68.1958 64.0556 68.172 63.7796 68.1481L63.3656 68.1124L63.8156 65.9608C64.1216 64.4947 64.4276 63.0643 64.7217 61.6279C64.8477 61.0021 64.9797 60.3644 65.0097 59.7446C65.0517 59.0115 65.4357 58.5943 65.8437 58.2546C67.3858 56.9732 68.8739 55.6977 70.452 54.3448L72.3901 52.6879L72.6241 53.0098C74.7122 55.8527 76.4643 58.487 76.7403 61.914L76.7463 61.9021ZM65.6337 54.4521V45.7862L70.242 50.1192L65.6337 54.4521ZM63.7196 32.1259C66.3477 31.7803 69.4439 31.5597 72.4501 32.5074C74.9282 33.2881 76.2963 34.647 76.6443 36.6555C76.7943 37.5316 76.7703 38.515 76.5783 39.5044C75.9663 42.6274 74.2082 45.1426 72.6061 47.2524L72.3661 47.5683L72.0661 47.306C71.52 46.8292 70.98 46.3524 70.446 45.8756C69.1799 44.7552 67.8778 43.5989 66.5398 42.55C65.5377 41.7632 65.0517 40.9229 64.8657 39.6534C64.6436 38.1217 64.2896 36.578 63.9536 35.0821C63.8096 34.4384 63.6656 33.8007 63.5276 33.157C63.5036 33.0318 63.4736 32.9067 63.4496 32.7696L63.3296 32.1736L63.7196 32.12V32.1259ZM36.2981 68.1124C35.08 68.2733 33.7539 68.4044 32.3798 68.4044C30.8378 68.4044 29.2297 68.2376 27.6336 67.7488C24.1474 66.682 22.6953 64.2503 23.4213 60.722C24.0454 57.7003 25.7075 55.215 27.4116 52.98L27.6516 52.6641L27.9516 52.9204C28.4976 53.3972 29.0377 53.874 29.5717 54.3448C30.8378 55.4653 32.1398 56.6215 33.4779 57.6705C34.474 58.4512 34.96 59.2916 35.146 60.573C35.368 62.1047 35.722 63.6484 36.0581 65.1443C36.2021 65.788 36.3461 66.4257 36.4841 67.0694C36.5141 67.1946 36.5381 67.3257 36.5621 67.4687L36.6761 68.0588L36.2861 68.1064L36.2981 68.1124ZM29.7697 50.1192L34.372 45.7982V54.4163L29.7697 50.1192ZM36.6101 32.5491C36.5141 32.9663 36.4121 33.3716 36.3161 33.7768C36.0941 34.6947 35.884 35.5589 35.71 36.4469C35.542 37.2813 35.398 38.1396 35.26 38.974C35.158 39.5878 35.056 40.2017 34.942 40.8156C34.9 41.0421 34.792 41.4533 34.504 41.6977C32.7699 43.1817 30.9878 44.6836 29.2657 46.1379L27.6096 47.5385L27.3756 47.2166C25.2875 44.3797 23.5414 41.7454 23.2653 38.3124C23.0673 35.833 24.1294 34.0331 26.4155 32.9603C28.9237 31.7862 31.5938 31.7564 33.8739 31.8816C34.42 31.9114 34.954 31.965 35.512 32.0246C35.764 32.0485 36.022 32.0783 36.2801 32.1021L36.7001 32.1379L36.6041 32.5491H36.6101ZM60.1314 67.5164L54.0531 65.7284L61.5955 61.4014L60.1314 67.5164ZM61.6015 38.8309L54.0531 34.498L60.1254 32.716L61.6015 38.8309ZM41.1823 29.283C42.5624 26.154 44.0445 23.18 46.9427 21.1893C49.0068 19.7709 51.1429 19.7887 53.123 21.243C54.0231 21.9045 54.9111 22.7747 55.8352 23.9071C57.2392 25.6176 58.1573 27.644 58.7933 29.2115L58.9373 29.5691L57.0532 30.2366C54.7971 31.0353 52.595 31.816 50.3869 32.5908C50.2849 32.6266 50.1648 32.6445 50.0388 32.6445C49.8948 32.6445 49.7388 32.6206 49.5888 32.5729C47.1527 31.7683 44.7225 30.9518 42.2924 30.1353L41.6264 29.9088C41.5484 29.885 41.4883 29.8433 41.4283 29.8075C41.4043 29.7896 41.3743 29.7717 41.3323 29.7479L41.0503 29.581L41.1823 29.283ZM39.8923 32.71L45.9646 34.498L38.4162 38.8309L39.8923 32.71ZM37.8641 56.3772C37.4621 52.2171 37.4621 47.9974 37.8641 43.8373C37.9001 43.4618 38.1582 43.0268 38.4762 42.8003C41.9204 40.3686 45.5986 38.2588 49.4028 36.5363C49.7568 36.3754 50.2608 36.3754 50.6029 36.5304C54.4251 38.2588 58.1033 40.3626 61.5295 42.7943C61.8595 43.0268 62.1295 43.5036 62.1595 43.8969C62.2735 45.4644 62.3635 47.0617 62.4415 48.6113L62.5255 50.1311L62.4415 51.633C62.3575 53.1826 62.2735 54.7799 62.1535 56.3533C62.1235 56.7467 61.8535 57.2056 61.5115 57.45C58.1693 59.8161 54.5151 61.92 50.6569 63.702C50.4228 63.8093 50.2128 63.8629 50.0028 63.8629C49.7928 63.8629 49.5888 63.8093 49.3728 63.708C45.5026 61.914 41.8544 59.8101 38.5182 57.4619C38.1762 57.2235 37.9001 56.7646 37.8641 56.3772ZM38.4162 61.4014L45.9526 65.7224L39.8923 67.5283L38.4162 61.4014ZM53.525 78.6914C52.421 79.6152 51.2329 80.0801 50.0328 80.0801C48.8328 80.0801 47.5907 79.6092 46.4026 78.6675C44.2665 76.9809 42.9884 74.7459 41.9144 72.5824C41.7344 72.2188 41.5784 71.8553 41.4103 71.4679C41.3323 71.2891 41.2483 71.0984 41.1643 70.9076L40.9963 70.5262L41.3983 70.407C41.7224 70.3116 42.0344 70.2222 42.3464 70.1328C43.0304 69.9421 43.6725 69.7574 44.3085 69.5428C45.2026 69.2388 46.0966 68.917 46.9847 68.5951C47.7767 68.3091 48.5748 68.023 49.3728 67.7429C49.5588 67.6773 50.0328 67.5462 50.4709 67.6833C52.613 68.3806 54.7851 69.1077 56.8852 69.817L58.3793 70.3176C58.4273 70.3355 58.4753 70.3593 58.5713 70.407C58.6133 70.4308 58.6733 70.4606 58.7573 70.5024L59.0933 70.6752L58.9133 71.003C58.6793 71.4381 58.4513 71.8791 58.2293 72.3142C57.7133 73.3155 57.1852 74.3585 56.5312 75.3001C55.6011 76.6531 54.5931 77.7855 53.525 78.6795V78.6914Z" fill="white"/>
<circle cx="50" cy="50" r="3.75" stroke="white" stroke-width="2.5"/>
</svg>
