<svg width="25" height="40" viewBox="0 0 25 40" fill="none" xmlns="http://www.w3.org/2000/svg">
<path d="M23.0038 16.0657H19.1699H17.8006V14.8284V10.9927V9.75535H19.1699H22.0454C22.7985 9.75535 23.4146 9.26042 23.4146 8.51803V1.9602C23.4146 1.27967 22.8669 0.72287 22.0454 0.72287H17.0475C11.6389 0.72287 7.87334 4.18738 7.87334 9.32229V14.7047V15.942H6.50406H1.84852C0.890029 15.942 0 16.6225 0 17.6124V22.0667C0 22.9329 0.753101 23.7371 1.84852 23.7371H6.36714H7.73641V24.9745V37.4096C7.73641 38.2757 8.48951 39.08 9.58494 39.08H16.0205C16.4313 39.08 16.7736 38.8944 17.0475 38.6469C17.3213 38.3995 17.5267 37.9664 17.5267 37.5952V25.0363V23.799H18.9645H22.0454C22.9354 23.799 23.62 23.3041 23.7569 22.5617V22.4998V22.4379L24.7154 18.1692C24.7839 17.7361 24.7154 17.2412 24.3047 16.7462C24.1677 16.4369 23.5516 16.1276 23.0038 16.0657Z" fill="white"/>
</svg>
