<svg width="42" height="37" viewBox="0 0 42 37" fill="none" xmlns="http://www.w3.org/2000/svg">
<path d="M36.784 6.92649L39.2522 3.5427C39.9667 2.62625 40.1616 1.9213 40.2265 1.56882C38.2779 2.83774 36.4592 3.26072 35.2901 3.26072H34.8354L34.5756 2.97873C33.0167 1.49832 31.0681 0.72287 28.9896 0.72287C24.4428 0.72287 20.8704 4.81162 20.8704 9.53484C20.8704 9.81682 20.8704 10.2398 20.9353 10.5218L21.1302 11.9317L19.7662 11.8612C11.4521 11.5792 4.63202 3.82468 3.52781 2.48526C1.70912 6.01005 2.74837 9.39384 3.85258 11.5087L6.061 15.4565L2.55351 13.3416C2.61847 16.3024 3.65772 18.6288 5.67128 20.3207L7.42502 21.7306L5.67128 22.5061C6.77549 26.1013 9.24372 27.5817 11.0624 28.1457L13.4657 28.8507L11.1923 30.5426C7.55493 33.3624 3.00819 33.1509 0.994629 32.9394C5.0867 36.0412 9.95821 36.7462 13.3358 36.7462C15.869 36.7462 17.7526 36.4642 18.2073 36.2527C36.3943 31.6 37.2387 13.9761 37.2387 10.4513V9.95781L37.6284 9.67583C39.8368 7.41996 40.7462 6.22154 41.2658 5.51658C41.0709 5.58708 40.8111 5.72807 40.5513 5.79856L36.784 6.92649Z" fill="white"/>
</svg>
