<svg width="41" height="27" viewBox="0 0 41 27" fill="none" xmlns="http://www.w3.org/2000/svg">
<path d="M36.9785 0.891602H4.80664C2.59482 0.891602 0.805264 2.32623 0.805264 4.07967L0.785156 23.2081C0.785156 24.9615 2.59482 26.3962 4.80664 26.3962H36.9785C39.1903 26.3962 41 24.9615 41 23.2081V4.07967C41 2.32623 39.1903 0.891602 36.9785 0.891602ZM36.1742 7.66625L21.9583 14.7119C21.3148 15.0307 20.4703 15.0307 19.8269 14.7119L5.61094 7.66625C5.40932 7.57652 5.23276 7.4553 5.09194 7.30991C4.95113 7.16452 4.84899 6.998 4.79171 6.82041C4.73443 6.64282 4.7232 6.45787 4.7587 6.27674C4.7942 6.09561 4.87568 5.92208 4.99823 5.76664C5.12077 5.6112 5.28183 5.47709 5.47165 5.37243C5.66147 5.26776 5.8761 5.19472 6.10256 5.15772C6.32902 5.12071 6.56259 5.12052 6.78914 5.15716C7.0157 5.19379 7.23052 5.26648 7.42061 5.37084L20.8926 12.0498L34.3646 5.37084C34.5547 5.26648 34.7695 5.19379 34.996 5.15716C35.2226 5.12052 35.4562 5.12071 35.6826 5.15772C35.9091 5.19472 36.1237 5.26776 36.3135 5.37243C36.5033 5.47709 36.6644 5.6112 36.7869 5.76664C36.9095 5.92208 36.991 6.09561 37.0265 6.27674C37.062 6.45787 37.0507 6.64282 36.9935 6.82041C36.9362 6.998 36.834 7.16452 36.6932 7.30991C36.5524 7.4553 36.3759 7.57652 36.1742 7.66625Z" fill="white"/>
</svg>
