<svg width="41" height="35" viewBox="0 0 41 35" fill="none" xmlns="http://www.w3.org/2000/svg">
<path d="M26.2295 24.1166V28.2071C26.2295 29.0731 25.8787 29.506 25.1771 29.506C24.7633 29.506 24.3586 29.3639 23.9628 29.0795V23.2442C24.3586 22.9599 24.7633 22.8177 25.1771 22.8177C25.8787 22.8177 26.2295 23.2507 26.2295 24.1166ZM35.3499 24.136V25.0278H32.9214V24.136C32.9214 23.2572 33.3261 22.8177 34.1356 22.8177C34.9451 22.8177 35.3499 23.2572 35.3499 24.136ZM9.28377 19.9098H12.171V18.0875H3.75213V19.9098H6.58541V30.9406H9.28377V19.9098ZM17.055 30.9406H19.4566V21.3638H17.055V28.6918C16.5154 29.2346 16.0027 29.506 15.517 29.506C15.1932 29.506 15.0043 29.3703 14.9503 29.0989C14.9323 29.0601 14.9233 28.834 14.9233 28.4204V21.3638H12.5218V28.9438C12.5218 29.5771 12.5938 30.0488 12.7377 30.359C12.9535 30.8372 13.4752 31.0763 14.3027 31.0763C15.1662 31.0763 16.0836 30.6821 17.055 29.8938V30.9406ZM28.631 28.0714V24.2523C28.631 23.3089 28.55 22.6691 28.3881 22.3331C28.0823 21.6093 27.4437 21.2474 26.4723 21.2474C25.5729 21.2474 24.7364 21.5964 23.9628 22.2943V18.0875H21.5613V30.9406H23.9628V30.0101C24.7723 30.7209 25.6088 31.0763 26.4723 31.0763C27.4437 31.0763 28.0823 30.7209 28.3881 30.0101C28.55 29.6611 28.631 29.0149 28.631 28.0714ZM37.7514 27.8776V27.6256H35.2959C35.2959 28.2847 35.2779 28.6789 35.242 28.8081C35.116 29.2734 34.7563 29.506 34.1626 29.506C33.3351 29.506 32.9214 29.0601 32.9214 28.1684V26.4818H37.7514V24.485C37.7514 23.4639 37.5086 22.7143 37.0229 22.2361C36.3213 21.577 35.3679 21.2474 34.1626 21.2474C32.9394 21.2474 31.977 21.577 31.2754 22.2361C30.7717 22.7143 30.5198 23.4639 30.5198 24.485V27.8388C30.5198 28.8598 30.7807 29.6094 31.3024 30.0876C32.0039 30.7468 32.9753 31.0763 34.2166 31.0763C35.5118 31.0763 36.4832 30.7338 37.1308 30.0488C37.4546 29.6999 37.6435 29.3509 37.6975 29.002C37.7335 28.8857 37.7514 28.5109 37.7514 27.8776ZM21.3454 10.1778V6.1067C21.3454 5.21493 20.9587 4.76904 20.1851 4.76904C19.4116 4.76904 19.0248 5.21493 19.0248 6.1067V10.1778C19.0248 11.0825 19.4116 11.5349 20.1851 11.5349C20.9587 11.5349 21.3454 11.0825 21.3454 10.1778ZM40.7466 24.737C40.7466 27.7613 40.5128 30.023 40.045 31.5222C39.7932 32.2847 39.2715 32.9245 38.48 33.4415C37.6885 33.9584 36.771 34.2557 35.7277 34.3332C32.4177 34.6046 27.4257 34.7403 20.7518 34.7403C14.0778 34.7403 9.08589 34.6046 5.7759 34.3332C4.73254 34.2557 3.8106 33.9584 3.01009 33.4415C2.20957 32.9245 1.69239 32.2847 1.45853 31.5222C0.990816 30.0747 0.756958 27.813 0.756958 24.737C0.756958 21.7127 0.990816 19.451 1.45853 17.9518C1.71038 17.1892 2.23206 16.5495 3.02358 16.0325C3.8151 15.5155 4.74153 15.2118 5.80289 15.1214C9.09488 14.8629 14.0778 14.7336 20.7518 14.7336C27.4257 14.7336 32.4177 14.8629 35.7277 15.1214C36.771 15.2118 37.693 15.5155 38.4935 16.0325C39.294 16.5495 39.8112 17.1892 40.045 17.9518C40.5128 19.3993 40.7466 21.661 40.7466 24.737ZM13.817 0H16.5693L13.3043 7.73516V12.9889H10.606V7.73516C10.3541 6.77876 9.80545 5.40879 8.95996 3.62525C8.29437 2.29405 7.70973 1.08564 7.20603 0H10.0663L11.9821 5.09861L13.817 0ZM23.8009 6.45566V9.84827C23.8009 10.8951 23.5491 11.6577 23.0454 12.1359C22.3618 12.795 21.4084 13.1246 20.1851 13.1246C18.9799 13.1246 18.0354 12.795 17.3519 12.1359C16.8482 11.6447 16.5963 10.8822 16.5963 9.84827V6.45566C16.5963 5.42172 16.8482 4.66565 17.3519 4.18745C18.0354 3.52832 18.9799 3.19875 20.1851 3.19875C21.4084 3.19875 22.3618 3.52832 23.0454 4.18745C23.5491 4.66565 23.8009 5.42172 23.8009 6.45566ZM32.8404 3.31507V12.9889H30.3849V11.9226C29.4315 12.7239 28.5051 13.1246 27.6056 13.1246C26.7781 13.1246 26.2474 12.8855 26.0136 12.4073C25.8697 12.0971 25.7977 11.6124 25.7977 10.9533V3.31507H28.2532V10.4299C28.2532 10.8564 28.2622 11.0825 28.2802 11.1084C28.3342 11.3927 28.5231 11.5349 28.8469 11.5349C29.3326 11.5349 29.8453 11.257 30.3849 10.7013V3.31507H32.8404Z" fill="white"/>
</svg>
