<svg width="100" height="100" viewBox="0 0 100 100" fill="none" xmlns="http://www.w3.org/2000/svg">
<circle cx="50" cy="50" r="50" fill="#5B87C6"/>
<path d="M77.6579 54.4733C75.8998 52.4391 73.7397 50.879 71.5196 49.403C71.2915 49.2529 71.0635 49.0909 70.8115 48.9109C71.9516 48.1069 73.0557 47.3688 74.1177 46.5768C75.9478 45.2027 77.6699 43.7146 78.924 41.7585C79.6201 40.6664 80.1061 39.4963 79.9801 38.1703C79.7641 35.9861 78.312 34.36 76.1398 33.784C74.2737 33.2859 72.3716 33.4 70.4875 33.586C69.8755 33.646 69.6714 33.484 69.4794 32.9259C66.1792 23.2173 55.8766 17.2709 45.922 19.4491C38.2715 21.1232 33.1112 25.7555 30.429 33.1179C30.291 33.496 30.153 33.64 29.703 33.598C27.7349 33.4179 25.7547 33.2619 23.8106 33.784C20.6364 34.636 19.1603 37.7142 20.4864 40.7144C21.1045 42.1065 22.0705 43.2346 23.1506 44.2786C25.6347 46.6788 28.5029 48.5569 31.4971 50.237C32.5831 50.849 33.5552 51.5211 34.2633 52.5831C34.7553 53.3152 35.4093 53.9332 36.0094 54.5933C36.7774 55.4453 37.5995 56.2614 38.3255 57.1494C38.9195 57.8755 39.4176 58.6795 39.9876 59.4956C39.7416 59.5976 39.6216 59.6636 39.4896 59.6996C36.1894 60.6356 32.8592 61.4217 29.433 61.7217C27.8069 61.8657 26.1628 61.9377 24.5667 61.4577C22.8206 60.9357 22.2805 59.7176 22.9946 58.0375C23.1266 57.7315 23.2586 57.6235 23.6186 57.6775C25.3167 57.9355 26.9548 57.0114 27.6568 55.4453C28.3529 53.8972 27.9269 52.0311 26.6248 50.939C25.3287 49.853 23.4746 49.733 22.0585 50.651C20.6244 51.5811 19.8564 53.4052 20.5164 54.9773C20.9304 55.9674 20.8044 56.7234 20.4744 57.6595C19.6464 60.0056 20.4684 62.1838 22.4545 63.3058C23.5826 63.9419 24.8247 64.1939 26.1028 64.2839C29.607 64.5359 33.0152 63.8999 36.3994 63.1198C37.8455 62.7838 39.2796 62.3878 40.7797 62.0037C40.8157 62.3338 40.8457 62.6218 40.8817 62.9158C40.1916 63.0958 39.7296 63.4378 39.7056 64.1579C39.6756 65.0039 40.2276 65.3579 40.9657 65.544C40.9657 66.294 40.9837 67.02 40.9477 67.7461C40.9417 67.8961 40.7497 68.1061 40.5936 68.1721C40.0176 68.3941 39.6996 68.7902 39.7056 69.4022C39.7056 69.9902 40.0056 70.4163 40.5756 70.5723C40.9057 70.6623 40.9837 70.8123 40.9717 71.1183C40.9537 71.8263 40.9537 72.5284 40.9717 73.2364C41.0017 74.7185 42.0697 75.7746 43.5458 75.8046C43.9599 75.8106 44.3799 75.8046 44.8419 75.8046C44.8419 76.5006 44.8419 77.1007 44.8419 77.7067C44.8419 79.7048 45.2019 80.2569 47.0021 81.0129H53.0564C53.1224 80.9709 53.1824 80.9169 53.2544 80.8869C54.5145 80.4309 55.1025 79.6208 55.1145 78.3008C55.1145 77.9167 55.1145 77.5327 55.1145 77.1487C55.1145 76.2686 55.5546 75.8186 56.4346 75.7986C57.9227 75.7686 58.9608 74.7245 58.9848 73.2244C58.9968 72.5164 58.9668 71.8084 59.0028 71.1063C59.0148 70.9263 59.1888 70.6683 59.3508 70.6083C59.9328 70.3923 60.2749 70.0022 60.2809 69.4022C60.2869 68.7722 59.9448 68.3521 59.3268 68.1601C59.1948 68.1181 59.0088 67.9381 59.0088 67.8181C58.9788 67.056 58.9968 66.3 58.9968 65.532C59.7648 65.3759 60.2749 64.9979 60.2869 64.2419C60.2989 63.4918 59.8068 63.0898 59.0628 62.9098C59.1168 62.5918 59.1648 62.3098 59.2128 62.0157C60.7249 62.3998 62.165 62.7898 63.6111 63.1198C64.0731 63.2278 64.2531 63.4198 64.3611 63.8819C64.8171 65.88 66.9053 67.1281 68.9274 66.678C70.9135 66.234 72.2336 64.2299 71.8376 62.2378C71.5316 60.6897 70.6135 59.6576 69.1014 59.2376C67.5653 58.8115 66.2272 59.2316 65.1652 60.4256C64.9192 60.7017 64.7331 60.8097 64.3551 60.7077C63.269 60.4016 62.171 60.1496 61.0789 59.8676C60.7369 59.7776 60.4069 59.6696 59.8548 59.5076C60.8929 58.2055 61.805 57.0054 62.771 55.8594C64.0131 54.3773 65.2732 52.9012 66.5933 51.4911C67.0313 51.0231 67.6553 50.663 68.2674 50.465C68.5434 50.375 68.9934 50.801 69.3474 51.011C69.7134 51.2271 70.0615 51.4671 70.4095 51.7071C72.3236 53.0212 74.2197 54.3653 75.7558 56.1354C76.4639 56.9514 77.0519 57.8335 77.2319 58.9315C77.4839 60.4736 76.6379 61.5417 75.0838 61.6497C74.7418 61.6737 74.3937 61.6797 74.0697 61.7817C73.5057 61.9617 73.2117 62.5258 73.2957 63.1318C73.3677 63.6658 73.7937 64.0919 74.3277 64.1639C77.5319 64.6259 80.2381 61.8897 79.7641 58.6915C79.518 57.0534 78.726 55.6973 77.6699 54.4733H77.6579ZM23.7986 41.2544C23.3906 40.7624 23.0366 40.2044 22.7726 39.6283C22.1305 38.2243 22.7185 36.7782 24.2066 36.3461C25.1367 36.0761 26.1508 36.0341 27.1288 35.9861C27.9269 35.9501 28.7309 36.0581 29.637 36.1121C29.0189 39.7783 29.355 43.2946 30.699 46.7268C28.1669 45.1667 25.7067 43.5466 23.7986 41.2544ZM24.1646 52.5531C24.8727 52.5652 25.4607 53.1772 25.4547 53.8912C25.4427 54.6053 24.8367 55.2053 24.1346 55.1993C23.4326 55.1873 22.8446 54.5693 22.8506 53.8612C22.8566 53.1412 23.4626 52.5411 24.1706 52.5591L24.1646 52.5531ZM68.0813 61.6137C68.7954 61.6197 69.3834 62.2198 69.3834 62.9218C69.3834 63.6238 68.7894 64.2119 68.0753 64.2179C67.3613 64.2239 66.7613 63.6478 66.7433 62.9458C66.7253 62.2197 67.3493 61.6017 68.0813 61.6137ZM42.2738 58.5715C41.3557 57.2754 40.4556 55.9674 39.5556 54.6653C39.5256 54.6233 39.5256 54.5633 39.4896 54.4313C41.8057 55.4513 44.0619 56.4414 46.438 57.4855C45.0939 57.9355 43.8818 58.3495 42.6578 58.7395C42.5558 58.7695 42.3518 58.6795 42.2797 58.5775L42.2738 58.5715ZM52.5464 78.4628C50.8963 78.4628 49.3242 78.4748 47.7521 78.4448C47.6201 78.4448 47.3801 78.2107 47.3741 78.0727C47.3321 77.4487 47.3381 76.8187 47.3741 76.2006C47.3801 76.0626 47.5781 75.8226 47.6921 75.8226C49.3002 75.7986 50.9083 75.8046 52.5524 75.8046V78.4628H52.5464ZM56.6686 61.8237C56.4466 62.9578 56.4646 62.9638 55.2646 62.9638C52.2584 62.9638 49.2522 62.9638 46.246 62.9638C45.4059 62.9638 44.8359 63.4858 44.8359 64.2119C44.8359 64.9379 45.4119 65.4599 46.246 65.484C46.39 65.484 46.528 65.484 46.672 65.484C49.6782 65.484 52.6844 65.484 55.6906 65.484H56.4106V68.0761C56.1886 68.0881 55.9606 68.1061 55.7266 68.1061C52.7024 68.1061 49.6722 68.1061 46.648 68.1061C46.366 68.1061 46.078 68.1181 45.808 68.1721C45.2559 68.2861 44.8659 68.7902 44.8479 69.3422C44.8299 69.9182 45.2379 70.4583 45.808 70.5723C46.084 70.6263 46.366 70.6383 46.648 70.6383C49.6542 70.6383 52.6604 70.6383 55.6666 70.6383H56.4346V73.2304H43.4918C43.4918 72.9904 43.4918 72.7624 43.4918 72.5284C43.4918 69.5402 43.4918 66.558 43.4738 63.5698C43.4738 62.9278 43.3718 62.2858 43.2758 61.6497C43.2278 61.3317 43.2878 61.1877 43.6118 61.0797C45.628 60.3896 47.6381 59.6576 49.6602 58.9675C49.8822 58.8895 50.1762 58.9195 50.4043 58.9975C52.3484 59.6636 54.2745 60.3656 56.2246 61.0197C56.6686 61.1697 56.7646 61.3737 56.6806 61.8057L56.6686 61.8237ZM59.5908 55.6613C58.9668 56.5734 58.3847 57.5155 57.7547 58.4275C57.6527 58.5775 57.3647 58.7515 57.2327 58.7095C56.0446 58.3435 54.8685 57.9295 53.5425 57.4795C55.9366 56.4234 58.1987 55.4333 60.4609 54.4373C60.4849 54.4613 60.5029 54.4913 60.5269 54.5153C60.2149 54.8933 59.8728 55.2593 59.5968 55.6613H59.5908ZM65.1712 48.9949C65.0392 49.2049 64.8111 49.3729 64.5891 49.493C59.9929 51.9411 55.2526 54.0652 50.4043 55.9554C50.1522 56.0514 49.7982 56.0514 49.5462 55.9554C44.7579 54.0832 40.0656 51.9951 35.5293 49.565C35.1633 49.3669 34.8153 49.0309 34.5933 48.6769C32.8472 45.8567 31.8151 42.8145 31.8631 39.4723C31.9891 30.5018 38.5655 23.0433 47.4521 21.7532C57.1787 20.3371 66.3172 27.0936 67.8473 36.8382C67.9913 37.7502 68.0453 38.6803 68.1413 39.5983C68.0873 43.0425 66.9773 46.1327 65.1712 49.0009V48.9949ZM69.2754 46.7268C70.5895 43.2946 70.9375 39.7844 70.3135 36.1361C72.1436 36.0041 73.8957 35.7641 75.6118 36.2921C77.2679 36.8022 77.892 38.2182 77.1299 39.7663C76.8239 40.3904 76.4099 40.9844 75.9478 41.5125C74.0757 43.6666 71.7236 45.2267 69.2754 46.7268Z" fill="white"/>
<path d="M62.987 37.0899C62.093 36.8559 61.1869 36.6459 60.2869 36.4239C59.4468 36.2139 59.1168 35.4218 59.5548 34.6898C60.0408 33.8737 60.5389 33.0697 61.0129 32.2536C61.4329 31.5336 61.3789 31.0356 60.8089 30.4535C60.2749 29.9015 59.7348 29.3615 59.1828 28.8274C58.6068 28.2694 58.1267 28.2094 57.4367 28.6114C56.5846 29.1094 55.7446 29.6255 54.8925 30.1355C54.2745 30.5075 53.4284 30.1715 53.2544 29.4755C53.0144 28.5394 52.7804 27.6034 52.5404 26.6673C52.3244 25.8272 51.9523 25.5092 51.0943 25.4912C50.3682 25.4732 49.6422 25.4732 48.9162 25.4912C47.9921 25.5092 47.6081 25.8152 47.3801 26.7153C47.134 27.6694 46.906 28.6294 46.654 29.5835C46.51 30.1235 45.646 30.4775 45.1659 30.1955C44.2959 29.6855 43.4378 29.1574 42.5678 28.6474C41.8117 28.2034 41.3377 28.2634 40.7197 28.8694C40.1856 29.3915 39.6576 29.9195 39.1356 30.4535C38.5535 31.0476 38.4935 31.5216 38.9195 32.2476C39.4176 33.0997 39.9336 33.9397 40.4376 34.7918C40.7797 35.3738 40.4376 36.2259 39.7896 36.3939C38.8535 36.6339 37.9115 36.8559 36.9754 37.0899C36.1174 37.306 35.7933 37.696 35.7753 38.584C35.7573 39.3101 35.7573 40.0361 35.7753 40.7622C35.7933 41.6562 36.1054 42.0282 36.9754 42.2443C37.9295 42.4843 38.8895 42.7183 39.8436 42.9703C40.4136 43.1203 40.7676 43.9964 40.4616 44.5064C39.9396 45.3885 39.3936 46.2645 38.8775 47.1526C38.4935 47.8186 38.5535 48.2986 39.0876 48.8507C39.6216 49.4027 40.1676 49.9427 40.7137 50.4768C41.3257 51.0768 41.8117 51.1368 42.5618 50.6928C43.4318 50.1828 44.2899 49.6487 45.1599 49.1447C45.658 48.8567 46.504 49.2167 46.654 49.7687C46.906 50.7228 47.1341 51.6828 47.3741 52.6369C47.6021 53.531 48.0041 53.843 48.9162 53.855C49.2582 53.855 49.6002 53.855 49.9422 53.855C50.2843 53.855 50.6263 53.855 50.9743 53.855C51.9284 53.849 52.3064 53.549 52.5464 52.6069C52.7804 51.6888 53.0144 50.7708 53.2484 49.8527C53.4224 49.1867 54.2565 48.8327 54.8445 49.1807C55.6966 49.6847 56.5366 50.2008 57.3887 50.7048C58.0967 51.1248 58.6068 51.0648 59.1948 50.5008C59.7348 49.9847 60.2569 49.4507 60.7789 48.9167C61.3729 48.3046 61.4329 47.8066 61.0009 47.0686C60.4969 46.2165 59.9808 45.3765 59.4768 44.5244C59.1528 43.9724 59.5128 43.1083 60.1249 42.9583C61.1029 42.7123 62.081 42.4783 63.053 42.2203C63.8271 42.0162 64.1511 41.5842 64.1571 40.7742C64.1631 40.0481 64.1631 39.3221 64.1571 38.596C64.1511 37.72 63.8331 37.306 62.981 37.0839L62.987 37.0899ZM61.1929 40.0721C60.3829 40.3001 59.5608 40.5102 58.7328 40.6902C58.0307 40.8402 57.5987 41.2002 57.4007 41.9142C57.2507 42.4543 56.9927 42.9643 56.7466 43.4683C56.4946 43.9844 56.4886 44.4644 56.7887 44.9564C57.2747 45.7485 57.7547 46.5405 58.2107 47.3506C58.2887 47.4946 58.2167 47.7286 58.2107 47.9146C58.0187 47.9146 57.7907 47.9746 57.6407 47.8966C56.8486 47.4526 56.0746 46.9786 55.3066 46.5045C54.7725 46.1745 54.2625 46.1865 53.7105 46.4745C53.2124 46.7325 52.6844 46.9486 52.1504 47.1106C51.5203 47.3026 51.1663 47.6926 51.0223 48.3166C50.8303 49.1627 50.6263 50.0027 50.3863 50.8368C50.3322 51.0228 50.1222 51.1668 49.9842 51.3288C49.8402 51.1728 49.6122 51.0408 49.5642 50.8608C49.3182 50.0087 49.1142 49.1447 48.9162 48.2806C48.7782 47.6686 48.4181 47.3086 47.8241 47.1166C47.2901 46.9425 46.756 46.7385 46.264 46.4805C45.664 46.1625 45.1299 46.1925 44.5599 46.5585C43.8158 47.0386 43.0478 47.4886 42.2738 47.9206C42.1417 47.9926 41.8357 47.9926 41.7757 47.9146C41.6857 47.7826 41.6557 47.5066 41.7337 47.3686C42.1718 46.5765 42.6458 45.7965 43.1258 45.0284C43.4558 44.4944 43.4678 43.9904 43.1858 43.4323C42.9278 42.9103 42.6878 42.3703 42.5138 41.8182C42.3278 41.2062 41.9437 40.8702 41.3437 40.7262C40.5036 40.5222 39.6576 40.3241 38.8235 40.0841C38.6375 40.0301 38.4875 39.8261 38.3255 39.6881C38.4935 39.5381 38.6435 39.3041 38.8415 39.2441C39.6936 38.9981 40.5577 38.806 41.4157 38.59C41.9737 38.452 42.3098 38.116 42.4958 37.564C42.6878 36.9939 42.9218 36.4359 43.1858 35.8959C43.4498 35.3558 43.4498 34.8638 43.1378 34.3478C42.5978 33.4717 42.0817 32.5837 41.5057 31.6296C41.6557 31.4676 41.7757 31.3356 41.9017 31.1916C42.8318 31.7496 43.7078 32.2476 44.5599 32.7877C45.1299 33.1477 45.664 33.1657 46.264 32.8477C46.762 32.5897 47.2901 32.3737 47.8241 32.2056C48.4241 32.0136 48.7661 31.6416 48.9042 31.0296C49.0842 30.2255 49.2822 29.4215 49.5162 28.6294C49.5822 28.4014 49.7622 28.0954 49.9482 28.0474C50.3502 27.9334 50.3382 28.3354 50.4043 28.5934C50.6023 29.3735 50.8123 30.1535 50.9863 30.9396C51.1363 31.6116 51.4843 32.0376 52.1804 32.2296C52.7024 32.3736 53.2004 32.6017 53.6804 32.8537C54.2565 33.1597 54.7845 33.1477 55.3306 32.8057C56.1886 32.2716 57.0587 31.7676 57.9587 31.2216C58.1027 31.3596 58.2467 31.4916 58.4087 31.6416C57.8747 32.5357 57.3647 33.4057 56.8306 34.2578C56.4706 34.8278 56.4586 35.3618 56.7766 35.9619C57.0407 36.4539 57.2387 36.9939 57.4127 37.522C57.6107 38.116 57.9767 38.464 58.5948 38.602C59.4588 38.794 60.3229 39.0041 61.1689 39.2501C61.3489 39.3041 61.4689 39.5381 61.6189 39.6881C61.4689 39.8201 61.3429 40.0181 61.1749 40.0661L61.1929 40.0721Z" fill="white"/>
<path d="M49.9782 34.5218C47.1701 34.5218 44.8539 36.8319 44.8359 39.6341C44.8179 42.4723 47.1281 44.7884 49.9842 44.7884C52.8224 44.7884 55.0965 42.5263 55.1085 39.6881C55.1205 36.8259 52.8224 34.5098 49.9842 34.5158L49.9782 34.5218ZM49.9482 42.2683C48.5381 42.2563 47.3741 41.0922 47.3621 39.6821C47.3501 38.266 48.5622 37.0479 49.9842 37.0479C51.4123 37.0479 52.5944 38.236 52.5884 39.6821C52.5884 41.1282 51.4063 42.2803 49.9542 42.2683H49.9482Z" fill="white"/>
</svg>
